<svg width="192" height="47" viewBox="0 0 192 47" fill="none" xmlns="http://www.w3.org/2000/svg">
<path d="M6.35838 10.2018L0.231214 4L0 24.0367L6.35838 30H13.8728L20 24.0367V15.9266L13.8728 9.6055L8.3237 15.9266H13.8728V24.0367H6.35838V10.2018Z" fill="#0A4150"/>
<path d="M30.592 13.504C30.976 12.88 31.528 12.376 32.248 11.992C32.968 11.608 33.792 11.416 34.72 11.416C35.824 11.416 36.824 11.696 37.72 12.256C38.616 12.816 39.32 13.616 39.832 14.656C40.36 15.696 40.624 16.904 40.624 18.28C40.624 19.656 40.36 20.872 39.832 21.928C39.32 22.968 38.616 23.776 37.72 24.352C36.824 24.912 35.824 25.192 34.72 25.192C33.776 25.192 32.952 25.008 32.248 24.64C31.544 24.256 30.992 23.752 30.592 23.128V25H26.488V7.24H30.592V13.504ZM36.448 18.28C36.448 17.256 36.16 16.456 35.584 15.88C35.024 15.288 34.328 14.992 33.496 14.992C32.68 14.992 31.984 15.288 31.408 15.88C30.848 16.472 30.568 17.28 30.568 18.304C30.568 19.328 30.848 20.136 31.408 20.728C31.984 21.32 32.68 21.616 33.496 21.616C34.312 21.616 35.008 21.32 35.584 20.728C36.16 20.12 36.448 19.304 36.448 18.28ZM44.6611 10.216C43.9411 10.216 43.3491 10.008 42.8851 9.592C42.4371 9.16 42.2131 8.632 42.2131 8.008C42.2131 7.368 42.4371 6.84 42.8851 6.424C43.3491 5.992 43.9411 5.776 44.6611 5.776C45.3651 5.776 45.9411 5.992 46.3891 6.424C46.8531 6.84 47.0851 7.368 47.0851 8.008C47.0851 8.632 46.8531 9.16 46.3891 9.592C45.9411 10.008 45.3651 10.216 44.6611 10.216ZM46.7011 11.608V25H42.5971V11.608H46.7011ZM56.9592 21.52V25H54.8712C53.3832 25 52.2232 24.64 51.3912 23.92C50.5592 23.184 50.1432 21.992 50.1432 20.344V15.016H48.5112V11.608H50.1432V8.344H54.2472V11.608H56.9352V15.016H54.2472V20.392C54.2472 20.792 54.3432 21.08 54.5352 21.256C54.7272 21.432 55.0472 21.52 55.4952 21.52H56.9592ZM65.1612 25.192C63.8492 25.192 62.6652 24.912 61.6092 24.352C60.5692 23.792 59.7452 22.992 59.1372 21.952C58.5452 20.912 58.2492 19.696 58.2492 18.304C58.2492 16.928 58.5532 15.72 59.1612 14.68C59.7692 13.624 60.6012 12.816 61.6572 12.256C62.7132 11.696 63.8972 11.416 65.2092 11.416C66.5212 11.416 67.7052 11.696 68.7612 12.256C69.8172 12.816 70.6492 13.624 71.2572 14.68C71.8652 15.72 72.1692 16.928 72.1692 18.304C72.1692 19.68 71.8572 20.896 71.2332 21.952C70.6252 22.992 69.7852 23.792 68.7132 24.352C67.6572 24.912 66.4732 25.192 65.1612 25.192ZM65.1612 21.64C65.9452 21.64 66.6092 21.352 67.1532 20.776C67.7132 20.2 67.9932 19.376 67.9932 18.304C67.9932 17.232 67.7212 16.408 67.1772 15.832C66.6492 15.256 65.9932 14.968 65.2092 14.968C64.4092 14.968 63.7452 15.256 63.2172 15.832C62.6892 16.392 62.4252 17.216 62.4252 18.304C62.4252 19.376 62.6812 20.2 63.1932 20.776C63.7212 21.352 64.3772 21.64 65.1612 21.64ZM78.0064 21.616H83.8144V25H73.4224V21.736L78.9904 14.992H73.4704V11.608H83.6944V14.872L78.0064 21.616ZM98.5167 18.088C98.5167 18.472 98.4927 18.872 98.4447 19.288H89.1567C89.2207 20.12 89.4847 20.76 89.9487 21.208C90.4287 21.64 91.0127 21.856 91.7007 21.856C92.7247 21.856 93.4367 21.424 93.8367 20.56H98.2047C97.9807 21.44 97.5727 22.232 96.9807 22.936C96.4047 23.64 95.6767 24.192 94.7967 24.592C93.9167 24.992 92.9327 25.192 91.8447 25.192C90.5327 25.192 89.3647 24.912 88.3407 24.352C87.3167 23.792 86.5167 22.992 85.9407 21.952C85.3647 20.912 85.0767 19.696 85.0767 18.304C85.0767 16.912 85.3567 15.696 85.9167 14.656C86.4927 13.616 87.2927 12.816 88.3167 12.256C89.3407 11.696 90.5167 11.416 91.8447 11.416C93.1407 11.416 94.2927 11.688 95.3007 12.232C96.3087 12.776 97.0927 13.552 97.6527 14.56C98.2287 15.568 98.5167 16.744 98.5167 18.088ZM94.3167 17.008C94.3167 16.304 94.0767 15.744 93.5967 15.328C93.1167 14.912 92.5167 14.704 91.7967 14.704C91.1087 14.704 90.5247 14.904 90.0447 15.304C89.5807 15.704 89.2927 16.272 89.1807 17.008H94.3167ZM108.662 11.464C110.23 11.464 111.478 11.976 112.406 13C113.35 14.008 113.822 15.4 113.822 17.176V25H109.742V17.728C109.742 16.832 109.51 16.136 109.046 15.64C108.582 15.144 107.958 14.896 107.174 14.896C106.39 14.896 105.766 15.144 105.302 15.64C104.838 16.136 104.606 16.832 104.606 17.728V25H100.502V11.608H104.606V13.384C105.022 12.792 105.582 12.328 106.286 11.992C106.99 11.64 107.782 11.464 108.662 11.464ZM124.275 1.92045V30.625H122.954V1.92045H124.275ZM128.399 8.97727V7.54545H141.055V8.97727H135.524V25H133.93V8.97727H128.399ZM144.463 25V7.54545H154.588V8.97727H146.057V15.5483H154.052V16.9801H146.057V23.5682H154.759V25H144.463ZM172.204 13H170.602C170.482 12.4034 170.266 11.8523 169.954 11.3466C169.647 10.8352 169.261 10.3892 168.795 10.0085C168.329 9.62784 167.801 9.33239 167.21 9.12216C166.619 8.91193 165.98 8.80682 165.292 8.80682C164.19 8.80682 163.184 9.09375 162.275 9.66761C161.372 10.2415 160.647 11.0852 160.102 12.1989C159.562 13.3068 159.292 14.6648 159.292 16.2727C159.292 17.892 159.562 19.2557 160.102 20.3636C160.647 21.4716 161.372 22.3125 162.275 22.8864C163.184 23.4545 164.19 23.7386 165.292 23.7386C165.98 23.7386 166.619 23.6335 167.21 23.4233C167.801 23.2131 168.329 22.9205 168.795 22.5455C169.261 22.1648 169.647 21.7187 169.954 21.2074C170.266 20.696 170.482 20.142 170.602 19.5455H172.204C172.062 20.3466 171.795 21.0938 171.403 21.7869C171.016 22.4744 170.522 23.0767 169.92 23.5938C169.323 24.1108 168.636 24.5142 167.857 24.804C167.079 25.0937 166.224 25.2386 165.292 25.2386C163.826 25.2386 162.525 24.8722 161.389 24.1392C160.252 23.4006 159.36 22.3608 158.712 21.0199C158.07 19.679 157.749 18.0966 157.749 16.2727C157.749 14.4489 158.07 12.8665 158.712 11.5256C159.36 10.1847 160.252 9.14773 161.389 8.41477C162.525 7.67614 163.826 7.30682 165.292 7.30682C166.224 7.30682 167.079 7.4517 167.857 7.74148C168.636 8.02557 169.323 8.42898 169.92 8.9517C170.522 9.46875 171.016 10.071 171.403 10.7585C171.795 11.446 172.062 12.1932 172.204 13ZM175.768 25V7.54545H177.361V15.5483H187.265V7.54545H188.858V25H187.265V16.9801H177.361V25H175.768Z" fill="#0A4150"/>
<path d="M5.34829 37.3C5.42162 37.3 5.45829 37.3367 5.45829 37.41V37.872C5.45829 37.9453 5.42162 37.982 5.34829 37.982H3.55529C3.52596 37.982 3.51129 37.9967 3.51129 38.026V44.89C3.51129 44.9633 3.47462 45 3.40129 45H2.84029C2.76696 45 2.73029 44.9633 2.73029 44.89V38.026C2.73029 37.9967 2.71562 37.982 2.68629 37.982H0.95929C0.885956 37.982 0.84929 37.9453 0.84929 37.872V37.41C0.84929 37.3367 0.885956 37.3 0.95929 37.3H5.34829ZM15.1283 37.41C15.1283 37.3367 15.165 37.3 15.2383 37.3H15.7993C15.8727 37.3 15.9093 37.3367 15.9093 37.41V44.89C15.9093 44.9633 15.8727 45 15.7993 45H15.2383C15.165 45 15.1283 44.9633 15.1283 44.89V41.524C15.1283 41.4947 15.1137 41.48 15.0843 41.48H12.3563C12.327 41.48 12.3123 41.4947 12.3123 41.524V44.89C12.3123 44.9633 12.2757 45 12.2023 45H11.6413C11.568 45 11.5313 44.9633 11.5313 44.89V37.41C11.5313 37.3367 11.568 37.3 11.6413 37.3H12.2023C12.2757 37.3 12.3123 37.3367 12.3123 37.41V40.754C12.3123 40.7833 12.327 40.798 12.3563 40.798H15.0843C15.1137 40.798 15.1283 40.7833 15.1283 40.754V37.41ZM24.5056 45.088C24.0582 45.088 23.6622 44.9963 23.3176 44.813C22.9802 44.6223 22.7162 44.3583 22.5256 44.021C22.3422 43.6837 22.2506 43.295 22.2506 42.855V39.456C22.2506 39.016 22.3422 38.6273 22.5256 38.29C22.7162 37.9453 22.9802 37.6813 23.3176 37.498C23.6622 37.3073 24.0582 37.212 24.5056 37.212C24.9529 37.212 25.3452 37.3073 25.6826 37.498C26.0272 37.6813 26.2949 37.9453 26.4856 38.29C26.6762 38.6273 26.7716 39.016 26.7716 39.456V42.855C26.7716 43.295 26.6762 43.6837 26.4856 44.021C26.2949 44.3583 26.0272 44.6223 25.6826 44.813C25.3452 44.9963 24.9529 45.088 24.5056 45.088ZM24.5056 44.406C24.9529 44.406 25.3122 44.2667 25.5836 43.988C25.8549 43.7093 25.9906 43.3427 25.9906 42.888V39.434C25.9906 38.972 25.8549 38.6017 25.5836 38.323C25.3122 38.037 24.9529 37.894 24.5056 37.894C24.0656 37.894 23.7099 38.037 23.4386 38.323C23.1672 38.6017 23.0316 38.972 23.0316 39.434V42.888C23.0316 43.3427 23.1672 43.7093 23.4386 43.988C23.7099 44.2667 24.0656 44.406 24.5056 44.406ZM35.2973 45.088C34.8499 45.088 34.4539 44.9927 34.1093 44.802C33.7719 44.6113 33.5079 44.3437 33.3173 43.999C33.1339 43.6543 33.0423 43.2547 33.0423 42.8V37.41C33.0423 37.3367 33.0789 37.3 33.1523 37.3H33.7133C33.7866 37.3 33.8233 37.3367 33.8233 37.41V42.844C33.8233 43.3133 33.9589 43.691 34.2303 43.977C34.5016 44.263 34.8573 44.406 35.2973 44.406C35.7373 44.406 36.0929 44.263 36.3643 43.977C36.6356 43.691 36.7713 43.3133 36.7713 42.844V37.41C36.7713 37.3367 36.8079 37.3 36.8813 37.3H37.4423C37.5156 37.3 37.5523 37.3367 37.5523 37.41V42.8C37.5523 43.2547 37.4569 43.6543 37.2663 43.999C37.0829 44.3437 36.8189 44.6113 36.4743 44.802C36.1369 44.9927 35.7446 45.088 35.2973 45.088ZM45.9208 45.088C45.2535 45.088 44.7145 44.8937 44.3038 44.505C43.9005 44.1163 43.6988 43.5993 43.6988 42.954V39.346C43.6988 38.7007 43.9005 38.1837 44.3038 37.795C44.7145 37.4063 45.2535 37.212 45.9208 37.212C46.3608 37.212 46.7458 37.3 47.0758 37.476C47.4132 37.652 47.6735 37.8977 47.8568 38.213C48.0475 38.5283 48.1428 38.8913 48.1428 39.302V39.61C48.1428 39.6833 48.1062 39.72 48.0328 39.72H47.4718C47.3985 39.72 47.3618 39.6833 47.3618 39.61V39.302C47.3618 38.884 47.2298 38.5467 46.9658 38.29C46.7018 38.026 46.3535 37.894 45.9208 37.894C45.4882 37.894 45.1398 38.026 44.8758 38.29C44.6118 38.5467 44.4798 38.8913 44.4798 39.324V42.976C44.4798 43.4013 44.6118 43.746 44.8758 44.01C45.1472 44.274 45.4992 44.406 45.9318 44.406C46.3645 44.406 46.7092 44.2813 46.9658 44.032C47.2298 43.7827 47.3618 43.4453 47.3618 43.02V41.821C47.3618 41.7917 47.3472 41.777 47.3178 41.777H46.0308C45.9575 41.777 45.9208 41.7403 45.9208 41.667V41.205C45.9208 41.1317 45.9575 41.095 46.0308 41.095H48.0328C48.1062 41.095 48.1428 41.1317 48.1428 41.205V42.921C48.1428 43.5883 47.9412 44.1163 47.5378 44.505C47.1345 44.8937 46.5955 45.088 45.9208 45.088ZM58.0893 37.41C58.0893 37.3367 58.126 37.3 58.1993 37.3H58.7603C58.8337 37.3 58.8703 37.3367 58.8703 37.41V44.89C58.8703 44.9633 58.8337 45 58.7603 45H58.1993C58.126 45 58.0893 44.9633 58.0893 44.89V41.524C58.0893 41.4947 58.0747 41.48 58.0453 41.48H55.3173C55.288 41.48 55.2733 41.4947 55.2733 41.524V44.89C55.2733 44.9633 55.2367 45 55.1633 45H54.6023C54.529 45 54.4923 44.9633 54.4923 44.89V37.41C54.4923 37.3367 54.529 37.3 54.6023 37.3H55.1633C55.2367 37.3 55.2733 37.3367 55.2733 37.41V40.754C55.2733 40.7833 55.288 40.798 55.3173 40.798H58.0453C58.0747 40.798 58.0893 40.7833 58.0893 40.754V37.41ZM69.4246 37.3C69.4979 37.3 69.5346 37.3367 69.5346 37.41V37.872C69.5346 37.9453 69.4979 37.982 69.4246 37.982H67.6316C67.6022 37.982 67.5876 37.9967 67.5876 38.026V44.89C67.5876 44.9633 67.5509 45 67.4776 45H66.9166C66.8432 45 66.8066 44.9633 66.8066 44.89V38.026C66.8066 37.9967 66.7919 37.982 66.7626 37.982H65.0356C64.9622 37.982 64.9256 37.9453 64.9256 37.872V37.41C64.9256 37.3367 64.9622 37.3 65.0356 37.3H69.4246ZM77.4559 45.088C76.7665 45.088 76.2165 44.9083 75.8059 44.549C75.4025 44.1823 75.2009 43.6947 75.2009 43.086V42.789C75.2009 42.7157 75.2375 42.679 75.3109 42.679H75.8499C75.9232 42.679 75.9599 42.7157 75.9599 42.789V43.042C75.9599 43.4527 76.0992 43.7827 76.3779 44.032C76.6565 44.2813 77.0269 44.406 77.4889 44.406C77.9215 44.406 78.2625 44.2887 78.5119 44.054C78.7612 43.8193 78.8859 43.5113 78.8859 43.13C78.8859 42.8807 78.8272 42.6643 78.7099 42.481C78.5925 42.2977 78.4202 42.129 78.1929 41.975C77.9655 41.821 77.6392 41.6267 77.2139 41.392C76.7592 41.15 76.3999 40.9373 76.1359 40.754C75.8792 40.5707 75.6702 40.347 75.5089 40.083C75.3475 39.819 75.2669 39.4963 75.2669 39.115C75.2669 38.521 75.4575 38.0553 75.8389 37.718C76.2202 37.3807 76.7299 37.212 77.3679 37.212C78.0499 37.212 78.5925 37.399 78.9959 37.773C79.3992 38.147 79.6009 38.642 79.6009 39.258V39.511C79.6009 39.5843 79.5642 39.621 79.4909 39.621H78.9409C78.8675 39.621 78.8309 39.5843 78.8309 39.511V39.269C78.8309 38.8583 78.6989 38.5283 78.4349 38.279C78.1709 38.0223 77.8079 37.894 77.3459 37.894C76.9352 37.894 76.6125 38.0003 76.3779 38.213C76.1505 38.4257 76.0369 38.7263 76.0369 39.115C76.0369 39.3643 76.0919 39.5733 76.2019 39.742C76.3119 39.9107 76.4695 40.0647 76.6749 40.204C76.8875 40.3433 77.2102 40.5303 77.6429 40.765C78.1415 41.0437 78.5229 41.282 78.7869 41.48C79.0582 41.6707 79.2709 41.8943 79.4249 42.151C79.5862 42.4003 79.6669 42.7083 79.6669 43.075C79.6669 43.691 79.4689 44.1823 79.0729 44.549C78.6769 44.9083 78.1379 45.088 77.4559 45.088ZM96.488 45C96.422 45 96.3817 44.967 96.367 44.901L96.004 43.526C95.9967 43.504 95.9783 43.493 95.949 43.493H93.32C93.2907 43.493 93.2723 43.504 93.265 43.526L92.902 44.901C92.8873 44.967 92.847 45 92.781 45H92.209C92.1723 45 92.143 44.989 92.121 44.967C92.1063 44.945 92.1027 44.9157 92.11 44.879L94.167 37.399C94.1817 37.333 94.222 37.3 94.288 37.3H94.992C95.058 37.3 95.0983 37.333 95.113 37.399L97.17 44.879L97.181 44.912C97.181 44.9707 97.1443 45 97.071 45H96.488ZM93.452 42.811C93.4447 42.8183 93.4447 42.8293 93.452 42.844C93.4667 42.8513 93.4813 42.855 93.496 42.855H95.773C95.7877 42.855 95.7987 42.8513 95.806 42.844C95.8207 42.8293 95.8243 42.8183 95.817 42.811L94.651 38.389C94.6437 38.3743 94.6363 38.367 94.629 38.367C94.6217 38.367 94.6143 38.3743 94.607 38.389L93.452 42.811ZM106.903 37.41C106.903 37.3367 106.94 37.3 107.013 37.3H107.574C107.647 37.3 107.684 37.3367 107.684 37.41V44.89C107.684 44.9633 107.647 45 107.574 45H106.98C106.914 45 106.87 44.9743 106.848 44.923L103.9 39.038C103.885 39.0233 103.871 39.016 103.856 39.016C103.849 39.016 103.845 39.027 103.845 39.049L103.856 44.89C103.856 44.9633 103.819 45 103.746 45H103.185C103.112 45 103.075 44.9633 103.075 44.89V37.41C103.075 37.3367 103.112 37.3 103.185 37.3H103.779C103.845 37.3 103.889 37.3257 103.911 37.377L106.859 43.284C106.874 43.2987 106.885 43.306 106.892 43.306C106.907 43.306 106.914 43.295 106.914 43.273L106.903 37.41ZM114.274 45C114.201 45 114.164 44.9633 114.164 44.89V37.41C114.164 37.3367 114.201 37.3 114.274 37.3H116.419C117.072 37.3 117.585 37.487 117.959 37.861C118.341 38.235 118.531 38.7447 118.531 39.39V42.91C118.531 43.5553 118.341 44.065 117.959 44.439C117.585 44.813 117.072 45 116.419 45H114.274ZM114.945 44.274C114.945 44.3033 114.96 44.318 114.989 44.318H116.43C116.834 44.3107 117.153 44.1787 117.387 43.922C117.622 43.658 117.743 43.2987 117.75 42.844V39.456C117.75 39.0013 117.633 38.642 117.398 38.378C117.164 38.114 116.841 37.982 116.43 37.982H114.989C114.96 37.982 114.945 37.9967 114.945 38.026V44.274ZM135.121 40.985C135.085 40.9997 135.085 41.018 135.121 41.04C135.466 41.2087 135.73 41.4507 135.913 41.766C136.104 42.0813 136.203 42.4627 136.21 42.91C136.21 43.57 136.012 44.0833 135.616 44.45C135.228 44.8167 134.711 45 134.065 45H131.898C131.825 45 131.788 44.9633 131.788 44.89V37.41C131.788 37.3367 131.825 37.3 131.898 37.3H133.977C134.652 37.3 135.18 37.476 135.561 37.828C135.943 38.1727 136.133 38.6677 136.133 39.313C136.133 39.7237 136.045 40.0683 135.869 40.347C135.701 40.6257 135.451 40.8383 135.121 40.985ZM132.613 37.982C132.584 37.982 132.569 37.9967 132.569 38.026V40.677C132.569 40.7063 132.584 40.721 132.613 40.721H133.988C134.414 40.721 134.747 40.6 134.989 40.358C135.239 40.116 135.363 39.7897 135.363 39.379C135.363 38.9463 135.239 38.6053 134.989 38.356C134.747 38.1067 134.414 37.982 133.988 37.982H132.613ZM134.043 44.307C134.469 44.307 134.806 44.175 135.055 43.911C135.305 43.647 135.429 43.2877 135.429 42.833C135.429 42.371 135.301 42.008 135.044 41.744C134.795 41.48 134.454 41.348 134.021 41.348H132.613C132.584 41.348 132.569 41.3627 132.569 41.392V44.263C132.569 44.2923 132.584 44.307 132.613 44.307H134.043ZM144.615 45.088C144.168 45.088 143.772 44.9927 143.427 44.802C143.09 44.6113 142.826 44.3437 142.635 43.999C142.452 43.6543 142.36 43.2547 142.36 42.8V37.41C142.36 37.3367 142.397 37.3 142.47 37.3H143.031C143.105 37.3 143.141 37.3367 143.141 37.41V42.844C143.141 43.3133 143.277 43.691 143.548 43.977C143.82 44.263 144.175 44.406 144.615 44.406C145.055 44.406 145.411 44.263 145.682 43.977C145.954 43.691 146.089 43.3133 146.089 42.844V37.41C146.089 37.3367 146.126 37.3 146.199 37.3H146.76C146.834 37.3 146.87 37.3367 146.87 37.41V42.8C146.87 43.2547 146.775 43.6543 146.584 43.999C146.401 44.3437 146.137 44.6113 145.792 44.802C145.455 44.9927 145.063 45.088 144.615 45.088ZM153.454 45C153.381 45 153.344 44.9633 153.344 44.89V37.41C153.344 37.3367 153.381 37.3 153.454 37.3H154.015C154.088 37.3 154.125 37.3367 154.125 37.41V44.89C154.125 44.9633 154.088 45 154.015 45H153.454ZM160.794 45C160.721 45 160.684 44.9633 160.684 44.89V37.41C160.684 37.3367 160.721 37.3 160.794 37.3H161.355C161.429 37.3 161.465 37.3367 161.465 37.41V44.274C161.465 44.3033 161.48 44.318 161.509 44.318H164.71C164.784 44.318 164.82 44.3547 164.82 44.428V44.89C164.82 44.9633 164.784 45 164.71 45H160.794ZM170.831 45C170.758 45 170.721 44.9633 170.721 44.89V37.41C170.721 37.3367 170.758 37.3 170.831 37.3H172.976C173.629 37.3 174.142 37.487 174.516 37.861C174.897 38.235 175.088 38.7447 175.088 39.39V42.91C175.088 43.5553 174.897 44.065 174.516 44.439C174.142 44.813 173.629 45 172.976 45H170.831ZM171.502 44.274C171.502 44.3033 171.517 44.318 171.546 44.318H172.987C173.39 44.3107 173.709 44.1787 173.944 43.922C174.179 43.658 174.3 43.2987 174.307 42.844V39.456C174.307 39.0013 174.19 38.642 173.955 38.378C173.72 38.114 173.398 37.982 172.987 37.982H171.546C171.517 37.982 171.502 37.9967 171.502 38.026V44.274ZM183.272 45.088C182.583 45.088 182.033 44.9083 181.622 44.549C181.219 44.1823 181.017 43.6947 181.017 43.086V42.789C181.017 42.7157 181.054 42.679 181.127 42.679H181.666C181.739 42.679 181.776 42.7157 181.776 42.789V43.042C181.776 43.4527 181.915 43.7827 182.194 44.032C182.473 44.2813 182.843 44.406 183.305 44.406C183.738 44.406 184.079 44.2887 184.328 44.054C184.577 43.8193 184.702 43.5113 184.702 43.13C184.702 42.8807 184.643 42.6643 184.526 42.481C184.409 42.2977 184.236 42.129 184.009 41.975C183.782 41.821 183.455 41.6267 183.03 41.392C182.575 41.15 182.216 40.9373 181.952 40.754C181.695 40.5707 181.486 40.347 181.325 40.083C181.164 39.819 181.083 39.4963 181.083 39.115C181.083 38.521 181.274 38.0553 181.655 37.718C182.036 37.3807 182.546 37.212 183.184 37.212C183.866 37.212 184.409 37.399 184.812 37.773C185.215 38.147 185.417 38.642 185.417 39.258V39.511C185.417 39.5843 185.38 39.621 185.307 39.621H184.757C184.684 39.621 184.647 39.5843 184.647 39.511V39.269C184.647 38.8583 184.515 38.5283 184.251 38.279C183.987 38.0223 183.624 37.894 183.162 37.894C182.751 37.894 182.429 38.0003 182.194 38.213C181.967 38.4257 181.853 38.7263 181.853 39.115C181.853 39.3643 181.908 39.5733 182.018 39.742C182.128 39.9107 182.286 40.0647 182.491 40.204C182.704 40.3433 183.026 40.5303 183.459 40.765C183.958 41.0437 184.339 41.282 184.603 41.48C184.874 41.6707 185.087 41.8943 185.241 42.151C185.402 42.4003 185.483 42.7083 185.483 43.075C185.483 43.691 185.285 44.1823 184.889 44.549C184.493 44.9083 183.954 45.088 183.272 45.088Z" fill="black"/>
</svg>
